<svg width="211" height="41" viewBox="0 0 211 41" fill="none" xmlns="http://www.w3.org/2000/svg">
<path d="M210.319 25.2418C210.714 24.5135 210.443 23.6031 209.715 23.2083L197.846 16.7759C197.117 16.3812 196.207 16.6517 195.812 17.38C195.417 18.1084 195.688 19.0188 196.416 19.4135L206.967 25.1312L201.249 35.6815C200.854 36.4098 201.125 37.3202 201.853 37.7149C202.581 38.1097 203.492 37.8392 203.886 37.1109L210.319 25.2418ZM0.909075 3.02951C22.0289 25.4093 92.9631 60.562 209.427 25.965L208.573 23.0892C92.9216 57.4448 23.2564 22.339 3.09092 0.970493L0.909075 3.02951Z" fill="white"/>
</svg>
