<svg width="211" height="35" viewBox="0 0 211 35" fill="none" xmlns="http://www.w3.org/2000/svg">
<path d="M209.603 15.6471C210.362 15.3139 210.707 14.4289 210.373 13.6704L204.943 1.31074C204.61 0.552287 203.725 0.207574 202.966 0.540801C202.208 0.874028 201.863 1.75901 202.196 2.51746L207.023 13.5039L196.037 18.3308C195.278 18.664 194.934 19.549 195.267 20.3074C195.6 21.0659 196.485 21.4106 197.244 21.0774L209.603 15.6471ZM1.60047 34.3746C21.6082 25.6343 56.0243 14.1911 94.1276 8.32748C132.255 2.46026 173.892 2.20835 208.456 15.6715L209.544 12.8761C174.272 -0.862987 132.027 -0.539975 93.6713 5.36238C55.2924 11.2684 20.6267 22.7893 0.39953 31.6254L1.60047 34.3746Z" fill="white"/>
</svg>
